<?xml version="1.0" encoding="UTF-8"?>
<svg id="Layer_1" data-name="Layer 1" xmlns="http://www.w3.org/2000/svg" viewBox="0 0 156.33 84.76">
  <defs>
    <style>
      .cls-1 {
        stroke-width: 0px;
      }
    </style>
  </defs>
  <path class="cls-1" d="M20.79,68.72c1.51.18,2.63.26,3.73.46,3.56.64,5.35,3.36,4.56,6.9-.04.17-.09.34-.14.51-2.07,7.5-7.79,10.16-14.73,6.64-5.1-2.59-7.99-6.79-7.68-12.65.16-3.03.86-6.04,1.43-9.03.19-1.01.63-2.02,1.15-2.91,2.1-3.65,4.03-4.28,7.54-3.44,3.33.8,5.15,2.82,5.19,6.27.02,1.47-.31,2.94-.52,4.41-.12.85-.31,1.68-.53,2.85Z"/>
  <path class="cls-1" d="M16.57,7.5c.81-.99,1.33-1.8,2.02-2.44,1.65-1.54,3.25-3.21,5.12-4.44,1.84-1.21,3.52-.59,4.71,1.26.33.51.63,1.07.81,1.64,1.4,4.38,2.07,8.86,1.7,13.46-.03.43-.11.87-.24,1.29-.88,3.03-3.25,3.73-5.55,1.59-.76-.71-1.34-1.61-2-2.43-.59-.73-1.16-1.47-1.75-2.21-4.76,3.93-4.94,3.95-9.76.89-.52.79-1,1.61-1.56,2.37-1.48,2.03-3.4,3.25-6.01,3.14-1.54-.07-2.77-.76-3.35-2.15-.98-2.37-1.13-4.73.65-6.9.49-.6.81-1.33,1.2-2.01.95-1.67,1.78-3.43,2.86-5.01,3.11-4.58,6.22-4.63,9.51-.26.47.62.93,1.26,1.63,2.21Z"/>
  <path class="cls-1" d="M91.29,34.03c.32-1.13.55-2.15.89-3.14.68-1.95,1.96-3.29,4.06-3.69,1.85-.35,3.1.28,3.72,2.05.37,1.06.69,2.2.73,3.32.14,4.02.27,8.04.16,12.05-.03,1.33-.58,2.75-1.23,3.94-.89,1.62-3.05,2.39-4.79,1.98-1.76-.41-2.54-1.74-2.94-3.35-.21-.84-.32-1.7-.53-2.8-1.12-.05-2.2-.1-3.36-.16-.26,1.05-.45,1.89-.68,2.71-.58,2.1-2.01,3.46-3.91,4.34-1.81.84-3.3.19-3.91-1.75-.36-1.16-.55-2.4-.6-3.61-.15-4.28-.27-8.57-.26-12.85,0-2.04.57-3.99,2.34-5.32,1.67-1.25,3.34-1.06,4.55.65.59.84.95,1.86,1.27,2.85.92,2.93,1.05,3.04,4.48,2.78Z"/>
  <path class="cls-1" d="M47.28,80.37c-5.74.02-9.77-4.1-9.59-9.82.11-3.54,1.58-6.6,3.5-9.47.39-.58.88-1.11,1.16-1.74.99-2.29.97-2.31,3.38-2.07,2.65.26,5.14,1.06,7.42,2.44,4.57,2.78,6.61,7.36,5.36,12.02-1.37,5.11-5.93,8.62-11.22,8.64Z"/>
  <path class="cls-1" d="M45.29,13.48c-.41,1.47-.71,2.43-.94,3.41-.8,3.44-3.57,5.21-7.03,4.48-3.88-.82-4.74-1.95-3.88-5.7.84-3.66,1.72-7.34,2.96-10.87C37.78.9,39.26.05,43.35.2c2.27.08,4.53.4,6.79.68,2.03.25,3.4,1.39,3.94,3.36,1.24,4.51,1.54,9.15,1.45,13.79-.04,2.28-1.94,3.17-3.94,1.95-1.17-.71-2.13-1.78-3.1-2.78-1.01-1.05-1.91-2.21-3.21-3.72Z"/>
  <path class="cls-1" d="M75.3,61.78c.82-1.05,1.44-1.87,2.1-2.67,1.04-1.25,2.32-2.11,3.99-2.26,2.39-.21,3.86,1.11,3.86,3.49,0,.52-.05,1.06-.18,1.56-1.06,4.05-1.95,8.16-3.29,12.12-.64,1.91-1.86,3.79-3.26,5.26-2.38,2.5-5.79,2.18-7.57-.77-1.74-2.89-3.25-6-4.35-9.19-1.13-3.27-1.68-6.75-2.37-10.16-.11-.56.19-1.43.61-1.83,2.34-2.23,6.16-1.84,8.1.79.81,1.1,1.48,2.3,2.35,3.66Z"/>
  <path class="cls-1" d="M100.53,70.92c.86.18,1.61.3,2.33.51,2.18.63,3.15,2.23,2.56,4.42-.65,2.42-2.2,4.15-4.52,5.12-3.96,1.65-8.7.33-11.24-3.2-2.5-3.47-3.21-7.36-2.21-11.48,1.1-4.55,3.43-8.4,7.14-11.33.55-.43,1.1-.86,1.58-1.37,1.35-1.44,1.85-1.54,3.53-.62,2.82,1.56,3.51,4.6,1.46,7.08-1.04,1.26-2.34,2.3-3.87,3.79,1.11.2,1.75.28,2.36.43,1.51.38,2.84,1.04,3.23,2.7.37,1.56-.67,2.41-1.79,3.19-.2.14-.31.4-.57.75Z"/>
  <path class="cls-1" d="M16.62,45.64c-.91.98-1.58,1.78-2.34,2.49-1.76,1.63-3.45,1.54-4.91-.37-.84-1.1-1.5-2.35-2.13-3.6-1.38-2.73-2.66-5.5-4.03-8.23-1.04-2.05-1.03-2.97.24-4.25,1.49-1.5,3.34-1.93,4.98-.9,1.09.68,1.98,1.68,2.94,2.56.38.35.72.76,1.19,1.27.43-.2.91-.34,1.3-.61,1.29-.92,2.66-1,3.93-.17,1.36.89,2.2.32,3.18-.6,1.2-1.13,2.44-2.28,3.85-3.12,2.66-1.59,4.85-.31,4.59,2.73-.39,4.65-1.51,9.14-3.75,13.27-1.38,2.54-2.79,2.91-5.4,1.56-1.15-.59-2.26-1.27-3.63-2.03Z"/>
  <path class="cls-1" d="M97.68,7.85c1.54,3.11,2.26,4.1-2.37,6.13.85.2,1.61.3,2.31.55,1.75.63,2.89,2.46,2.75,4.33-.11,1.56-.95,2.57-2.63,2.76-1.55.17-3.14.11-4.71.05-2.88-.12-5.77-.18-8.63-.53-3.66-.44-4.89-1.86-4.82-5.56.05-2.61.31-5.24.76-7.8.49-2.78,2.4-4.57,5.16-4.89,3.54-.41,7.13-.5,10.7-.58,1.01-.02,2.1.31,3.02.75,1.94.91,2.01,2.65.23,3.84-.56.38-1.19.65-1.78.97Z"/>
  <path class="cls-1" d="M124.72,42.57c.22,1.35.38,2.34.59,3.6,1.17,0,2.19-.01,3.21,0,1.77.02,2.2.36,2.32,1.77.16,1.9-.39,2.81-1.95,3.13-.68.14-1.4.14-2.06.35-.33.11-.55.55-.82.84.38.26.78.77,1.13.74,1.3-.1,2.59-.39,3.88-.58,2.33-.35,3.07-.09,3.27,1.46.34,2.57.15,4.78-2.17,5.15-1.2.19-2.43.28-3.65.32-2.62.08-5.24.12-7.86.12-2.38,0-3.25-.58-3.63-2.89-.76-4.74-1.5-9.5-1.91-14.28-.36-4.22,1.45-6.15,5.65-6.57,2.26-.22,4.53-.31,6.8-.35,2.2-.03,2.82.66,3.01,3.03.2,2.52-.33,3.27-2.61,3.66-.94.16-1.88.3-3.22.52Z"/>
  <path class="cls-1" d="M142.8,49.12c-.12-1.94-.23-3.87-.36-5.98-1.35,0-2.38,0-3.41,0-3.14.02-4.01-.84-4.06-4.04-.04-2.28.85-2.94,3.89-2.9,2.89.04,5.77.13,8.66.08,1.66-.03,3.31-.27,4.96-.42,1.98-.17,2.34.09,2.72,1.93,1.01,4.97.38,5.79-4.73,6.18-.51.04-1.02.13-1.85.24.08.98.14,1.9.22,2.81.21,2.26.59,4.52.61,6.79.03,3.05-1.39,4.53-4.42,4.77-1.29.1-2.63-.02-3.9-.27-2.49-.49-4.06-2.01-4.34-4.6-.18-1.65-.31-3.31-.3-4.97.01-1.79.66-2.34,2.61-2.58,1.67-.21,1.91-.05,2.6,1.8.15.4.28.8.42,1.2.23-.02.45-.03.68-.05Z"/>
  <path class="cls-1" d="M59.36,10.38c-.12-2.12-.24-4.3-.35-6.47-.1-1.85.28-2.39,2.15-2.49,4.13-.23,8.2.12,12.1,1.64.89.35,1.76.79,2.54,1.34,2.31,1.63,3.19,4.07,2.03,6.66-.77,1.71-1.93,3.32-3.22,4.68-2.45,2.59-5.52,4.27-9.05,4.93-1.09.2-2.27.24-3.36.06-1.91-.31-2.72-1.25-2.8-3.22-.1-2.35-.02-4.71-.02-7.13Z"/>
  <path class="cls-1" d="M58.1,38.94c-1.37.07-2.4.16-3.43.16-2.6-.01-3.83-1.52-3.39-4.08.44-2.52,2.09-4.02,4.36-4.79,1.47-.49,3.07-.81,4.61-.82,2.96-.03,5.94.08,8.88.4,1.95.21,3.84,1.02,4.3,3.25.46,2.25-.84,3.82-2.49,5.13-.34.27-.71.53-1.11.69-1.23.5-1.61,1.44-1.63,2.7-.02,1.22-.1,2.46-.4,3.63-.28,1.07-.76,2.16-1.39,3.06-1.03,1.47-2.55,2.1-4.36,1.75-1.77-.34-2.73-1.61-3.06-3.23-.33-1.62-.35-3.29-.53-4.94-.09-.85-.22-1.7-.37-2.93Z"/>
  <path class="cls-1" d="M150.42,66.9c1.8,1.61,3.43,2.94,4.9,4.42,1.36,1.37,1.3,1.83.13,3.06-1.54,1.62-1.92,1.7-3.49.53-1.39-1.04-2.74-2.12-4.4-3.4-.6,1.63-1.02,3.04-1.63,4.36-.34.73-.95,1.77-1.54,1.85-1.24.17-2.58-.12-3.83-.43-.19-.05-.33-1.3-.11-1.84.73-1.78,1.49-3.57,2.53-5.18,1.11-1.73.82-3-.52-4.37-1.08-1.12-2-2.39-2.95-3.56,2.18-3.08,2.52-3.06,6.91.31.43-.86.81-1.69,1.23-2.49.89-1.66,1.36-1.89,3.13-1.45.99.25,1.95.6,2.99.93-.26,2.97-2.72,4.67-3.36,7.25Z"/>
  <path class="cls-1" d="M124.12,67.56c1.29.98,2.15.55,2.95.56.96,0,1.4.47,1.49,1.43.21,2.28-.27,2.83-3.57,3.71,0,1.02,0,2.12,0,3.22,0,1.93-.07,2.04-1.85,2.57-.42.12-.84.25-1.27.34-1.83.38-2.27.08-2.66-1.83-.09-.43-.14-.86-.19-1.3-.41-4.08-.83-8.16-1.21-12.25-.17-1.82.24-2.32,2.14-2.51,2.34-.23,4.7-.4,7.05-.51,1.59-.07,2.05.35,2.28,1.87.09.6.05,1.22.08,1.83.08,1.37-.47,2.11-1.93,2.21-.96.07-1.91.36-3.33.65Z"/>
  <path class="cls-1" d="M35.72,34.51c-.16-3.15.43-4.16,3.07-4.93,2.16-.63,3.92-.05,4.84,1.99,2.27,5,2.13,10.02-.32,14.93-.65,1.3-1.73,2.25-3.35,2.07-1.68-.19-2.65-1.29-3.11-2.81-.28-.91-.4-1.88-.49-2.84-.24-2.7-.42-5.41-.64-8.4Z"/>
  <path class="cls-1" d="M129.56,71.71c.74-3.04,1.43-6.09,2.28-9.11.14-.48.93-.99,1.5-1.11,2.46-.5,5.21,1.02,6.33,3.62,1.59,3.72,1.08,7.37-1.01,10.74-1.16,1.88-3.05,2.55-5.23,2.1-2.2-.45-3.11-2.07-3.45-4.1-.12-.68-.14-1.38-.21-2.08-.07-.02-.13-.04-.2-.07Z"/>
  <path class="cls-1" d="M130.97,16.74c.32.23.51.42.74.54,1.32.71,2.32,1.65,2.15,3.28-.17,1.6-1.37,2.41-2.69,2.95-.95.39-2.01.65-3.04.71-4.07.26-4.93-.54-5.12-4.63-.12-2.53-.23-5.07-.25-7.61,0-1.79.57-2.3,2.37-2.4,4.02-.23,6.42,2.62,5.84,7.16Z"/>
  <path class="cls-1" d="M140.27,11.5c.75-.64,1.41-1.35,2.19-1.86,1.37-.88,3.05-.76,3.88.18.99,1.13.62,2.33-.04,3.4-.63,1.04-1.38,2.04-2.22,2.91-1.02,1.06-1.6,2.15-1.67,3.68-.05,1.08-.45,2.27-1.07,3.15-.4.57-1.47.93-2.23.92-.96,0-1.42-.89-1.54-1.84-.01-.09-.04-.18-.02-.26.41-3.26-.95-5.94-2.75-8.48-.2-.28-.34-.61-.49-.93-.42-.88-.95-1.82-.04-2.64.91-.83,2.1-1.08,3.18-.49.97.53,1.77,1.38,2.84,2.25Z"/>
</svg>